# xmcd
#
# Track frame offsets:
#	150
#	14550
#	39342
#	56747
#	70390
#	83457
#	101640
#	113920
#	134675
#	153337
#	164905
#	188032
#
# Disc length: 2767 seconds
#
# Revision: 5
# Processed by: cddbd v1.5.2PL0 Copyright (c) Steve Scherf et al.
# Submitted via: audiograbber 1.83.01
#
DISCID=a50acd0c
DTITLE=Omar and the Howlers - Swingland
DYEAR=1999
DGENRE=Blues
TTITLE0=Mr. Blues Is Coming To Town
TTITLE1=Ain't That Just Like A Woman
TTITLE2=Hit The Road, Jack
TTITLE3=Yellow Coat
TTITLE4=Don't Lose Your Cool
TTITLE5=Work Song
TTITLE6=So Mean To Me
TTITLE7=Going Up To The Country
TTITLE8=That's Your Daddy Yaddy Yo
TTITLE9=Quiet Whiskey
TTITLE10=One Room Country Shack
TTITLE11=Alligator Wine
EXTD=LABEL =Omar Dykes - Black Top Records, Inc.\nID =CDBT-1152\nUPC =633018-
EXTD=1152-28\nCOPYRIGHT =1999\n---\nProdiced by Omar Dykes and Kevin Wommack
EXTT0=Nix and Glower
EXTT1=Dmetrius and F. Moore
EXTT2=Percy Mayfield
EXTT3=J. Hawkins and I. Nahan
EXTT4=Albert Collins
EXTT5=Nat Adderly and Oscar Brown
EXTT6=James, Josea, Taub and Ling
EXTT7=Taj Mahal
EXTT8=C. Brown
EXTT9=Shell, Glover, Harris and Weismantel
EXTT10=Mercy Dee Walton
EXTT11=J. Lieber and M. Stoller
PLAYORDER=
